<svg id="visual" viewBox="0 0 900 600" width="900" height="600" xmlns="http://www.w3.org/2000/svg" xmlns:xlink="http://www.w3.org/1999/xlink" version="1.1"><rect x="0" y="0" width="900" height="600" fill="#ffffff"></rect><path d="M0 523L21.5 527.2C43 531.3 86 539.7 128.8 542.3C171.7 545 214.3 542 257.2 539.5C300 537 343 535 385.8 537C428.7 539 471.3 545 514.2 547.8C557 550.7 600 550.3 642.8 544.7C685.7 539 728.3 528 771.2 528.3C814 528.7 857 540.3 878.5 546.2L900 552L900 601L878.5 601C857 601 814 601 771.2 601C728.3 601 685.7 601 642.8 601C600 601 557 601 514.2 601C471.3 601 428.7 601 385.8 601C343 601 300 601 257.2 601C214.3 601 171.7 601 128.8 601C86 601 43 601 21.5 601L0 601Z" fill="#5966e1" stroke-linecap="round" stroke-linejoin="miter"></path></svg>